<svg width="126" height="24" viewBox="0 0 126 24" fill="none" xmlns="http://www.w3.org/2000/svg">
<path d="M0.68 18.5V1.7H4.592L11.552 13.124H9.488L16.256 1.7H20.168L20.216 18.5H15.848L15.8 8.348H16.544L11.48 16.844H9.368L4.16 8.348H5.072V18.5H0.68ZM42.1548 18.716C41.0508 18.716 39.9708 18.588 38.9148 18.332C37.8748 18.076 37.0348 17.756 36.3948 17.372L37.7628 14.252C38.3708 14.62 39.0828 14.916 39.8988 15.14C40.7148 15.348 41.5148 15.452 42.2988 15.452C43.0668 15.452 43.5948 15.372 43.8828 15.212C44.1868 15.052 44.3388 14.836 44.3388 14.564C44.3388 14.308 44.1948 14.124 43.9068 14.012C43.6348 13.884 43.2668 13.788 42.8028 13.724C42.3548 13.66 41.8588 13.588 41.3148 13.508C40.7708 13.428 40.2188 13.324 39.6588 13.196C39.1148 13.052 38.6108 12.844 38.1468 12.572C37.6988 12.284 37.3388 11.9 37.0668 11.42C36.7948 10.94 36.6588 10.332 36.6588 9.596C36.6588 8.764 36.8988 8.028 37.3788 7.388C37.8748 6.732 38.5948 6.22 39.5388 5.852C40.4828 5.468 41.6348 5.276 42.9948 5.276C43.9068 5.276 44.8268 5.372 45.7548 5.564C46.6988 5.74 47.4908 6.012 48.1308 6.38L46.7628 9.476C46.1228 9.108 45.4828 8.86 44.8428 8.732C44.2028 8.588 43.5948 8.516 43.0188 8.516C42.2508 8.516 41.7068 8.604 41.3868 8.78C41.0828 8.956 40.9308 9.172 40.9308 9.428C40.9308 9.684 41.0668 9.884 41.3388 10.028C41.6108 10.156 41.9708 10.26 42.4188 10.34C42.8828 10.404 43.3868 10.476 43.9308 10.556C44.4748 10.62 45.0188 10.724 45.5628 10.868C46.1228 11.012 46.6268 11.228 47.0748 11.516C47.5388 11.788 47.9068 12.164 48.1788 12.644C48.4508 13.108 48.5868 13.708 48.5868 14.444C48.5868 15.244 48.3388 15.964 47.8428 16.604C47.3628 17.244 46.6428 17.756 45.6828 18.14C44.7388 18.524 43.5628 18.716 42.1548 18.716ZM54.3198 18.716C53.2158 18.716 52.1358 18.588 51.0798 18.332C50.0398 18.076 49.1998 17.756 48.5598 17.372L49.9278 14.252C50.5358 14.62 51.2478 14.916 52.0638 15.14C52.8798 15.348 53.6798 15.452 54.4638 15.452C55.2318 15.452 55.7598 15.372 56.0478 15.212C56.3518 15.052 56.5038 14.836 56.5038 14.564C56.5038 14.308 56.3598 14.124 56.0718 14.012C55.7998 13.884 55.4318 13.788 54.9678 13.724C54.5198 13.66 54.0238 13.588 53.4798 13.508C52.9358 13.428 52.3838 13.324 51.8238 13.196C51.2798 13.052 50.7758 12.844 50.3118 12.572C49.8638 12.284 49.5038 11.9 49.2318 11.42C48.9598 10.94 48.8238 10.332 48.8238 9.596C48.8238 8.764 49.0638 8.028 49.5438 7.388C50.0398 6.732 50.7598 6.22 51.7038 5.852C52.6478 5.468 53.7998 5.276 55.1598 5.276C56.0718 5.276 56.9918 5.372 57.9198 5.564C58.8638 5.74 59.6558 6.012 60.2958 6.38L58.9278 9.476C58.2878 9.108 57.6478 8.86 57.0078 8.732C56.3678 8.588 55.7598 8.516 55.1838 8.516C54.4158 8.516 53.8718 8.604 53.5518 8.78C53.2478 8.956 53.0958 9.172 53.0958 9.428C53.0958 9.684 53.2318 9.884 53.5038 10.028C53.7758 10.156 54.1358 10.26 54.5838 10.34C55.0478 10.404 55.5518 10.476 56.0958 10.556C56.6398 10.62 57.1838 10.724 57.7278 10.868C58.2878 11.012 58.7918 11.228 59.2398 11.516C59.7038 11.788 60.0718 12.164 60.3438 12.644C60.6158 13.108 60.7518 13.708 60.7518 14.444C60.7518 15.244 60.5038 15.964 60.0078 16.604C59.5278 17.244 58.8078 17.756 57.8478 18.14C56.9038 18.524 55.7278 18.716 54.3198 18.716ZM63.7544 23.372C63.0664 23.372 62.3704 23.26 61.6664 23.036C60.9784 22.828 60.4184 22.548 59.9864 22.196L61.5704 19.004C61.8424 19.244 62.1544 19.428 62.5064 19.556C62.8744 19.7 63.2344 19.772 63.5864 19.772C64.0824 19.772 64.4744 19.66 64.7624 19.436C65.0504 19.212 65.2984 18.86 65.5064 18.38L66.1064 16.868L66.4664 16.412L70.8824 5.492H75.2264L69.6104 19.028C69.1624 20.148 68.6424 21.02 68.0504 21.644C67.4744 22.284 66.8264 22.732 66.1064 22.988C65.4024 23.244 64.6184 23.372 63.7544 23.372ZM65.5304 19.052L59.7944 5.492H64.4744L68.6984 16.004L65.5304 19.052ZM75.4452 18.5V0.691999H80.0052V18.5H75.4452ZM89.9527 18.5V16.076L89.6407 15.476V11.012C89.6407 10.292 89.4167 9.74 88.9687 9.356C88.5367 8.956 87.8407 8.756 86.8807 8.756C86.2567 8.756 85.6247 8.86 84.9847 9.068C84.3447 9.26 83.8007 9.532 83.3527 9.884L81.8167 6.788C82.5527 6.308 83.4327 5.94 84.4567 5.684C85.4967 5.412 86.5287 5.276 87.5527 5.276C89.6647 5.276 91.2967 5.764 92.4487 6.74C93.6167 7.7 94.2007 9.212 94.2007 11.276V18.5H89.9527ZM86.1127 18.716C85.0727 18.716 84.1927 18.54 83.4727 18.188C82.7527 17.836 82.2007 17.356 81.8167 16.748C81.4487 16.14 81.2647 15.46 81.2647 14.708C81.2647 13.908 81.4647 13.22 81.8647 12.644C82.2807 12.052 82.9127 11.604 83.7607 11.3C84.6087 10.98 85.7047 10.82 87.0487 10.82H90.1207V13.196H87.6727C86.9367 13.196 86.4167 13.316 86.1127 13.556C85.8247 13.796 85.6807 14.116 85.6807 14.516C85.6807 14.916 85.8327 15.236 86.1367 15.476C86.4407 15.716 86.8567 15.836 87.3847 15.836C87.8807 15.836 88.3287 15.716 88.7287 15.476C89.1447 15.22 89.4487 14.836 89.6407 14.324L90.2647 16.004C90.0247 16.9 89.5527 17.58 88.8487 18.044C88.1607 18.492 87.2487 18.716 86.1127 18.716ZM104.591 5.276C105.599 5.276 106.511 5.484 107.327 5.9C108.143 6.3 108.783 6.924 109.247 7.772C109.727 8.62 109.967 9.716 109.967 11.06V18.5H105.407V11.804C105.407 10.876 105.215 10.204 104.831 9.788C104.463 9.356 103.943 9.14 103.271 9.14C102.791 9.14 102.351 9.252 101.951 9.476C101.551 9.684 101.239 10.012 101.015 10.46C100.791 10.908 100.679 11.492 100.679 12.212V18.5H96.119V5.492H100.463V9.188L99.623 8.108C100.119 7.164 100.799 6.46 101.663 5.996C102.527 5.516 103.503 5.276 104.591 5.276ZM117.698 18.716C116.514 18.716 115.434 18.444 114.458 17.9C113.498 17.34 112.73 16.564 112.154 15.572C111.578 14.564 111.29 13.364 111.29 11.972C111.29 10.596 111.578 9.412 112.154 8.42C112.73 7.412 113.498 6.636 114.458 6.092C115.434 5.548 116.514 5.276 117.698 5.276C118.818 5.276 119.762 5.516 120.53 5.996C121.314 6.476 121.906 7.212 122.306 8.204C122.706 9.196 122.906 10.452 122.906 11.972C122.906 13.524 122.714 14.796 122.33 15.788C121.946 16.78 121.37 17.516 120.602 17.996C119.834 18.476 118.866 18.716 117.698 18.716ZM118.658 15.092C119.17 15.092 119.626 14.972 120.026 14.732C120.442 14.492 120.77 14.14 121.01 13.676C121.25 13.196 121.37 12.628 121.37 11.972C121.37 11.316 121.25 10.764 121.01 10.316C120.77 9.852 120.442 9.5 120.026 9.26C119.626 9.02 119.17 8.9 118.658 8.9C118.13 8.9 117.658 9.02 117.242 9.26C116.842 9.5 116.522 9.852 116.282 10.316C116.042 10.764 115.922 11.316 115.922 11.972C115.922 12.628 116.042 13.196 116.282 13.676C116.522 14.14 116.842 14.492 117.242 14.732C117.658 14.972 118.13 15.092 118.658 15.092ZM121.514 18.5V16.268L121.538 11.972L121.298 7.676V0.691999H125.858V18.5H121.514Z" fill="#1EEFA4"/>
<path d="M28.9304 18.716C27.5064 18.716 26.2424 18.428 25.1384 17.852C24.0344 17.276 23.1624 16.484 22.5224 15.476C21.8984 14.452 21.5864 13.284 21.5864 11.972C21.5864 10.66 21.8984 9.5 22.5224 8.492C23.1624 7.484 24.0344 6.7 25.1384 6.14C26.2424 5.564 27.5064 5.276 28.9304 5.276C30.3544 5.276 31.6184 5.564 32.7224 6.14C33.8424 6.7 34.7144 7.484 35.3384 8.492C35.9624 9.5 36.2744 10.66 36.2744 11.972C36.2744 13.284 35.9624 14.452 35.3384 15.476C34.7144 16.484 33.8424 17.276 32.7224 17.852C31.6184 18.428 30.3544 18.716 28.9304 18.716ZM28.9304 15.092C29.4584 15.092 29.9224 14.972 30.3224 14.732C30.7384 14.492 31.0664 14.14 31.3064 13.676C31.5464 13.196 31.6664 12.628 31.6664 11.972C31.6664 11.316 31.5464 10.764 31.3064 10.316C31.0664 9.852 30.7384 9.5 30.3224 9.26C29.9224 9.02 29.4584 8.9 28.9304 8.9C28.4184 8.9 27.9544 9.02 27.5384 9.26C27.1384 9.5 26.8104 9.852 26.5544 10.316C26.3144 10.764 26.1944 11.316 26.1944 11.972C26.1944 12.628 26.3144 13.196 26.5544 13.676C26.8104 14.14 27.1384 14.492 27.5384 14.732C27.9544 14.972 28.4184 15.092 28.9304 15.092Z" fill="#7E4FED"/>
</svg>
